<svg width="14" height="14" viewBox="0 0 14 14" fill="none" xmlns="http://www.w3.org/2000/svg">
    <path d="M6.93227 1.39461L5.72457 0.489103C5.65977 0.440358 5.58432 0.407709 5.50443 0.393848C5.42453 0.379987 5.34249 0.385311 5.26506 0.40938C4.89103 0.526508 4.52814 0.676649 4.18069 0.85803C4.10876 0.895757 4.04684 0.950048 4.00003 1.01642C3.95323 1.0828 3.92287 1.15935 3.91148 1.23977L3.69799 2.73429C3.61661 2.80643 3.53694 2.88145 3.45897 2.95937C3.38103 3.03731 3.30599 3.11701 3.23384 3.19845L3.2338 3.19848L1.73954 3.41216C1.65926 3.42351 1.58282 3.45378 1.51652 3.50047C1.45023 3.54716 1.39598 3.60894 1.35825 3.68071C1.17659 4.02802 1.02616 4.39078 0.908726 4.76472C0.884544 4.84226 0.879149 4.92443 0.892984 5.00446C0.90682 5.0845 0.93949 5.16009 0.988298 5.22501L1.89412 6.43276C1.88758 6.54131 1.8843 6.6507 1.88427 6.76092C1.88427 6.87115 1.88755 6.98056 1.89412 7.08917L1.89412 7.08921L0.988614 8.29691C0.939869 8.36171 0.907221 8.43717 0.89336 8.51706C0.879499 8.59695 0.884822 8.67899 0.908891 8.75642C1.02602 9.13046 1.17616 9.49334 1.35754 9.84079C1.39527 9.91272 1.44956 9.97464 1.51593 10.0214C1.58231 10.0683 1.65886 10.0986 1.73928 10.11L3.2338 10.3235C3.30594 10.4049 3.38096 10.4845 3.45888 10.5625C3.53682 10.6404 3.61651 10.7155 3.69796 10.7876L3.69799 10.7877L3.91167 12.2819C3.92302 12.3622 3.95329 12.4387 3.99998 12.505C4.04667 12.5713 4.10845 12.6255 4.18022 12.6632C4.52753 12.8449 4.89029 12.9953 5.26423 13.1128C5.34177 13.1369 5.42394 13.1423 5.50397 13.1285C5.58401 13.1147 5.6596 13.082 5.72452 13.0332L6.93227 12.1274C7.04082 12.1339 7.15021 12.1372 7.26043 12.1372C7.37066 12.1372 7.48007 12.1339 7.58868 12.1274L7.58872 12.1274L8.79642 13.0329C8.86122 13.0816 8.93668 13.1143 9.01657 13.1281C9.09646 13.142 9.1785 13.1367 9.25593 13.1126C9.62997 12.9955 9.99285 12.8453 10.3403 12.6639C10.4122 12.6262 10.4742 12.5719 10.521 12.5055C10.5678 12.4392 10.5981 12.3626 10.6095 12.2822L10.823 10.7877C10.9044 10.7155 10.9841 10.6405 11.062 10.5626C11.14 10.4847 11.215 10.405 11.2872 10.3235L11.2872 10.3235L12.7815 10.1098C12.8617 10.0985 12.9382 10.0682 13.0045 10.0215C13.0708 9.97481 13.125 9.91303 13.1627 9.84126C13.3444 9.49396 13.4948 9.13119 13.6123 8.75725C13.6365 8.67972 13.6418 8.59754 13.628 8.51751C13.6142 8.43748 13.5815 8.36188 13.5327 8.29697L12.6269 7.08922C12.6334 6.98067 12.6367 6.87128 12.6367 6.76105C12.6367 6.65083 12.6334 6.54141 12.6269 6.4328L12.6269 6.43276L13.5324 5.22506C13.5811 5.16026 13.6138 5.08481 13.6276 5.00491C13.6415 4.92502 13.6362 4.84298 13.6121 4.76555C13.495 4.39151 13.3448 4.02863 13.1635 3.68118C13.1257 3.60925 13.0714 3.54733 13.0051 3.50052C12.9387 3.45371 12.8621 3.42336 12.7817 3.41197L11.2872 3.19848C11.2151 3.1171 11.14 3.03743 11.0621 2.95946C10.9842 2.88152 10.9045 2.80648 10.823 2.73432L10.823 2.73429L10.6093 1.24003C10.598 1.15975 10.5677 1.08331 10.521 1.01701C10.4743 0.950718 10.4125 0.89647 10.3408 0.858737C9.99347 0.677077 9.63071 0.526644 9.25677 0.409214C9.17923 0.385033 9.09706 0.379637 9.01702 0.393472C8.93699 0.407308 8.8614 0.439978 8.79648 0.488786L7.58873 1.39461C7.48018 1.38807 7.37079 1.38479 7.26056 1.38476C7.15034 1.38476 7.04092 1.38804 6.93231 1.39461L6.93227 1.39461Z" stroke="#0C0C0C" stroke-width="0.7" stroke-linecap="round" stroke-linejoin="round"/>
    <path d="M7.26061 9.83274C8.9573 9.83274 10.3327 8.4573 10.3327 6.76061C10.3327 5.06392 8.9573 3.68848 7.26061 3.68848C5.56392 3.68848 4.18848 5.06392 4.18848 6.76061C4.18848 8.4573 5.56392 9.83274 7.26061 9.83274Z" stroke="#0C0C0C" stroke-width="0.7" stroke-linecap="round" stroke-linejoin="round"/>
</svg>
