<svg width="24" height="25" viewBox="0 0 24 25" fill="none" xmlns="http://www.w3.org/2000/svg">
    <path d="M17 22.2266C16.1667 22.2266 15.4583 21.9349 14.875 21.3516C14.2917 20.7682 14 20.0599 14 19.2266C14 19.1266 14.025 18.8932 14.075 18.5266L7.05 14.4266C6.78333 14.6766 6.475 14.8724 6.125 15.0141C5.775 15.1557 5.4 15.2266 5 15.2266C4.16667 15.2266 3.45833 14.9349 2.875 14.3516C2.29167 13.7682 2 13.0599 2 12.2266C2 11.3932 2.29167 10.6849 2.875 10.1016C3.45833 9.51823 4.16667 9.22656 5 9.22656C5.4 9.22656 5.775 9.2974 6.125 9.43906C6.475 9.58073 6.78333 9.77656 7.05 10.0266L14.075 5.92656C14.0417 5.8099 14.0208 5.6974 14.0125 5.58906C14.0042 5.48073 14 5.3599 14 5.22656C14 4.39323 14.2917 3.6849 14.875 3.10156C15.4583 2.51823 16.1667 2.22656 17 2.22656C17.8333 2.22656 18.5417 2.51823 19.125 3.10156C19.7083 3.6849 20 4.39323 20 5.22656C20 6.0599 19.7083 6.76823 19.125 7.35156C18.5417 7.9349 17.8333 8.22656 17 8.22656C16.6 8.22656 16.225 8.15573 15.875 8.01406C15.525 7.8724 15.2167 7.67656 14.95 7.42656L7.925 11.5266C7.95833 11.6432 7.97917 11.7557 7.9875 11.8641C7.99583 11.9724 8 12.0932 8 12.2266C8 12.3599 7.99583 12.4807 7.9875 12.5891C7.97917 12.6974 7.95833 12.8099 7.925 12.9266L14.95 17.0266C15.2167 16.7766 15.525 16.5807 15.875 16.4391C16.225 16.2974 16.6 16.2266 17 16.2266C17.8333 16.2266 18.5417 16.5182 19.125 17.1016C19.7083 17.6849 20 18.3932 20 19.2266C20 20.0599 19.7083 20.7682 19.125 21.3516C18.5417 21.9349 17.8333 22.2266 17 22.2266ZM17 20.2266C17.2833 20.2266 17.5208 20.1307 17.7125 19.9391C17.9042 19.7474 18 19.5099 18 19.2266C18 18.9432 17.9042 18.7057 17.7125 18.5141C17.5208 18.3224 17.2833 18.2266 17 18.2266C16.7167 18.2266 16.4792 18.3224 16.2875 18.5141C16.0958 18.7057 16 18.9432 16 19.2266C16 19.5099 16.0958 19.7474 16.2875 19.9391C16.4792 20.1307 16.7167 20.2266 17 20.2266ZM5 13.2266C5.28333 13.2266 5.52083 13.1307 5.7125 12.9391C5.90417 12.7474 6 12.5099 6 12.2266C6 11.9432 5.90417 11.7057 5.7125 11.5141C5.52083 11.3224 5.28333 11.2266 5 11.2266C4.71667 11.2266 4.47917 11.3224 4.2875 11.5141C4.09583 11.7057 4 11.9432 4 12.2266C4 12.5099 4.09583 12.7474 4.2875 12.9391C4.47917 13.1307 4.71667 13.2266 5 13.2266ZM17 6.22656C17.2833 6.22656 17.5208 6.13073 17.7125 5.93906C17.9042 5.7474 18 5.5099 18 5.22656C18 4.94323 17.9042 4.70573 17.7125 4.51406C17.5208 4.3224 17.2833 4.22656 17 4.22656C16.7167 4.22656 16.4792 4.3224 16.2875 4.51406C16.0958 4.70573 16 4.94323 16 5.22656C16 5.5099 16.0958 5.7474 16.2875 5.93906C16.4792 6.13073 16.7167 6.22656 17 6.22656Z" fill="#0C0C0C"/>
</svg>
